<?xml-stylesheet type="text/css" href="../style.css" ?>
<svg version="1.1" id="Layer_1" xmlns="http://www.w3.org/2000/svg" x="0" y="0" viewBox="0 0 1023.5 837.8" xml:space="preserve"><style>.st0{opacity:.1;fill:#00c7fa;enable-background:new}.st1{fill:#f6f7f9}.st2{opacity:.2;enable-background:new}.st2,.st4{fill:#00c7fa}.st9{fill:#efb7b9}.st10{fill:#444053}.st11{fill:#b07473}.st12{opacity:.1;enable-background:new}.st13{fill:#e1e7ef}.st14{fill:#67647e}.st15{fill:#585268}.st16{opacity:3.000000e-02;enable-background:new}.st19{fill:#cc818c}.st20{opacity:.1}</style><path class="st0" d="M274.4.5C228.4 3 181.9 16.4 146 45.3c-31.5 25.4-54.2 65.2-48.7 105.3 6.5 47.3 48.7 81.7 64.4 126.8 10.1 29 8.5 61 1.9 91-4.2 19.3-10.8 38.7-23.3 54-22.6 27.6-63.3 40.9-74.4 74.7-12.1 36.8 18.3 72.9 46.9 99.1 22.8 20.9 46.7 41.7 75.4 53.1 21 8.4 43.8 11.4 66.4 12.6 62.4 3.3 124.7-6.7 183-29.2 27.9-10.8 54.9-24.6 84.1-31.1 62.2-13.9 126.3 6.2 189.4 15.5 54.1 8 109 8.2 163.2.5 34.1-4.9 69.2-13.6 94.9-36.5 26-23.3 39-59.3 37.6-94.2S990.6 418.4 969 391c-28-35.4-66.6-60.6-100.2-90.7-34.2-30.7-63.3-66.7-86.2-106.6-13.2-23-24.4-47.4-41.5-67.7-26.7-31.6-65.3-50.3-104-64.8-89.2-33.4-181.6-40.2-274.6-55-29.2-4.7-58.7-7.3-88.1-5.7z"/><g id="speech-bottom"><path class="st1" d="M258.5 367.1h191v106.7h-191V367.1z"/><circle class="st2" cx="294.5" cy="414.5" r="19.9"/><path class="st2" d="M338.6 390.9h86.6v5.5h-86.6v-5.5zm0 13.9h44.1v5.5h-44.1v-5.5zm0 13.9H410v5.5h-71.4v-5.5zm0 13.9h86.6v5.5h-86.6v-5.5zm62.7 20h24v10.5h-24v-10.5z"/></g><g id="speech-top"><path class="st1" d="M419.3 72.2h191v106.7h-191V72.2z"/><circle class="st2" cx="455.3" cy="119.6" r="19.9"/><path class="st2" d="M499.4 96H586v5.4h-86.6V96zm0 13.9h44.1v5.4h-44.1v-5.4zm0 13.9h71.4v5.5h-71.4v-5.5zm0 13.9H586v5.4h-86.6v-5.4zm62.6 20h24v10.5h-24v-10.5z"/></g><g id="speech-middle"><path class="st1" d="M482.9 251.4h191v106.7h-191V251.4z"/><circle class="st2" cx="518.8" cy="298.7" r="19.9"/><path class="st2" d="M563 275.2h86.6v5.5H563v-5.5zm0 13.9h44.1v5.5H563v-5.5zm0 13.9h71.4v5.5H563V303zm0 13.9h86.6v5.5H563v-5.5zm62.6 20h24v10.5h-24v-10.5z"/></g><g id="speech-left"><linearGradient id="SVGID_1_" gradientUnits="userSpaceOnUse" x1="352.435" y1="520.85" x2="352.435" y2="702.29" gradientTransform="matrix(1 0 0 -1 0 838)"><stop offset="0" stop-color="gray" stop-opacity=".25"/><stop offset=".54" stop-color="gray" stop-opacity=".12"/><stop offset="1" stop-color="gray" stop-opacity=".1"/></linearGradient><path d="M191.9 135.7H513v181.4H191.9V135.7z" fill="url(#SVGID_1_)"/><path class="st1" d="M194.1 138h316.6v176.9H194.1V138z"/><circle class="st2" cx="253.8" cy="216.5" r="33"/><path class="st2" d="M326.9 177.4h143.6v9H326.9v-9zm0 23.1h73.2v9h-73.2v-9zm0 23h118.3v9H326.9v-9zm0 23h143.6v9H326.9v-9z"/><path class="st4" d="M430.8 279.8h39.7v17.5h-39.7v-17.5z"/></g><g id="speech-right"><linearGradient id="SVGID_2_" gradientUnits="userSpaceOnUse" x1="569.83" y1="286.51" x2="569.83" y2="457.18" gradientTransform="matrix(1 0 0 -1 0 838)"><stop offset="0" stop-color="gray" stop-opacity=".25"/><stop offset=".54" stop-color="gray" stop-opacity=".12"/><stop offset="1" stop-color="gray" stop-opacity=".1"/></linearGradient><path d="M417.1 380.8h305.4v170.7H417.1V380.8z" fill="url(#SVGID_2_)"/><path class="st1" d="M419.2 382h301.2v168.3H419.2V382z"/><circle class="st2" cx="475.9" cy="456.7" r="31.4"/><path class="st2" d="M545.5 419.5h136.6v8.6H545.5v-8.6zm0 22h69.6v8.6h-69.6v-8.6zm0 21.9h112.6v8.6H545.5v-8.6zm0 21.9h136.6v8.6H545.5v-8.6z"/><path d="M644.4 516.9h37.8v16.6h-37.8v-16.6z" opacity=".5" fill="#00c7fa"/></g><g><ellipse class="st0" cx="176" cy="807.8" rx="176" ry="30"/><ellipse class="st0" cx="847.5" cy="800.8" rx="176" ry="30"/><linearGradient id="SVGID_3_" gradientUnits="userSpaceOnUse" x1="171.5" y1="518.8" x2="171.5" y2="518.98" gradientTransform="matrix(1 0 0 -1 -88.27 806.92)"><stop offset="0" stop-color="gray" stop-opacity=".25"/><stop offset=".54" stop-color="gray" stop-opacity=".12"/><stop offset="1" stop-color="gray" stop-opacity=".1"/></linearGradient><path d="M82.9 287.9l.7.2c-.2-.2-.5-.2-.7-.2z" opacity=".1" fill="url(#SVGID_3_)"/><linearGradient id="SVGID_4_" gradientUnits="userSpaceOnUse" x1="228.0154" y1="-15.7501" x2="228.0154" y2="587.7708" gradientTransform="matrix(1 0 0 -1 -88.27 806.92)"><stop offset="0" stop-color="gray" stop-opacity=".25"/><stop offset=".54" stop-color="gray" stop-opacity=".12"/><stop offset="1" stop-color="gray" stop-opacity=".1"/></linearGradient><path d="M237.6 404.1c-2.2-14.8-15.7-49.5-15.7-49.5-.2-1-.5-2.1-.8-3.1-9.6-32.9-22.8-35.8-22.8-35.8l-47.4-10.1c.4.2.7.6 1 .9l-.8.1c-2.2-2.6-3.6-5.7-4.2-9-.1-.5-.2-1-.2-1.5 13.2-12.9 13.5-34 .6-47.2-1-1.1-2.2-2.1-3.3-3-.5-.4-1-.8-1.5-1.1 2.2-2.4 2.3-5.7.6-9-3.7-7.8-11.9-12.7-20.2-15.1-6.4-1.8-13.3-2.4-19.6-.4-3.6 1.1-6.9 3.1-10.3 4.8-6.3 3.1-13.2 5.6-18 10.8-1.1 1.2-2.1 2.8-1.8 4.3.2 1.2 1.2 2.1 1.8 3.2 1.4 2.4 1 5.3.1 7.9s-2.3 5-2.9 7.6-.4 5.7 1.6 7.6c1 .8 2 1.5 3 2.1 1.1.9 2 2 2.8 3.2l5.6 7.6c2.6 3.4 5 6.9 7 10.7 1.4 2.8 2.5 5.7 4.4 8.2.6.7 1.2 1.4 1.9 2-.2-.1-.4-.1-.6-.2 1.7 1.6 3.9 2.5 6.3 2.4h.3c.4 0 .8-.2 1.1-.5v1c.1 3.6.1 7.5-.2 11.2l-.4-.2c-1.3-.7-2.9-.5-4.1.4l-43.7 35s-9.5 13-8.2 35.4l-7.6 33.6s-9.6 28.5-2.2 48.9c7.4 20.4 11.6 32 11.6 32s2.9 23.1 7.4 25 6.3 2.9 6.3 2.9l.9 5.5s.3.5.8 1.5c3.2 5.6 15.1 25.3 22.1 23.2.9 5.4 1.2 10.8 1.1 16.2l6.8 46s4.8 12.5 4.5 19.1 5.6 15.9 5.6 15.9c-3.6 6.5-4.6 14.1-2.9 21.4 2.8 12.2 6.3 68.7 6.3 68.7l5.1 13.7-.1 16c-.4 2.6-1.5 5-3.2 7.1-3.3 3.6-3.1 7.8-11 12.7s-13 6.8-13 13.3c0 .9-.1 1.8-.2 2.7-.7 4.8-2.2 7.4 12.5 8.8 17.2 1.6 28.7-9.6 28.7-9.6s2.5-4.6 14.5-6.4c0 0 4.1-.2 4.3-3.8.1-1.2.1-3.6 0-6.2-.2-5-.7-10.8-1.3-11.1-.8-.3-2.2-5.4-2.7-7.2h3.3s3.1-23.1 0-38.1-.3-25.6-.3-25.6l-.6-39.6s-4.2-4.2-.9-11.9c3.3-7.7 0-45.8 0-45.8s1.2-13.7 4.6-16.9.2-20 0-20.9l6 20.2s2.6 40.2 8.2 47.5l1.6 18.2s11.5 16.7 9.3 25.8 2.4 41.6 2.4 41.6v33.3s-5.2 13.4 2.1 18.2l3.1-.1c-1.1 1-1.8 2.4-3 3.6-1.4 1.4-2.2 6.8-2.6 11.5-.4 3.9-.5 7.3-.5 7.3s3.1 4.9 8.8 5.2 24.7 14.8 24.7 14.8 18.8 0 23.6-1l.3-.1c1.6-.5 2.9-1.6 3.7-3 1-1.7 1.3-3.6.9-5.5-.6-2.9-2.9-6-7.9-8.7-12.6-6.7-14.5-12.9-14.5-12.9l-8.2-12.4h1.2s-.7-13.1 8.2-27.8l-.6-64.8s3.7-22.3-2.6-34.3c0 0-.5-12.8 3.7-16.7s-5.6-43.7-5.6-43.7-2-21.3-4.4-40.8c9.9 9.4 20.2-24.5 22-30.5h.3s0-.2-.1-.4.1-.4.1-.4-2.2-7.8-.6-6.3c1.6 1.6 5.6-4.4 5.6-4.4s-.6-32.5 6.3-48.8-3.3-56.4-3.3-56.4zM208 424.7c1 19.7-.2 62-.2 62s-1.4 5.4-2.8 11.8l-1-40.2-1-37.8 5 4.2zM81.3 411.1s5 62.6 0 71.6c-1.4 2.6-2.6 7.1-3.6 12.4-1.6-4.3-5.1-14.5-3.9-19.9 1.6-7-3.2-25.3-3.2-25.8s-.4-10.2 3.1-17.7 1.2-10.7 1.2-10.7 2.8-12.2 6.4-9.9z" fill="url(#SVGID_4_)"/><path class="st9" d="M93.4 552c-4.3 19.2-21.7-9.8-25.6-16.8l-.8-1.4 1.9-8.8 9.9-4c1.6.8 3.1 1.8 4.4 2.9 5.5 4.2 13.6 13.3 10.2 28.1zm134.5-31.3l-.1.4c0 .1-.1.3-.1.5-1.7 6-11.8 39.7-21.6 30.3-10.7-10.3-5.5-33.8-5.5-33.8h.1l22.5-2.3 4.4 4.6.3.3z"/><path class="st10" d="M214.9 686.4l.6 64.3c-8.8 14.6-8.1 27.6-8.1 27.6l-29 1.2c-7.1-4.8-2-18-2-18v-33.1s-4.5-32.3-2.4-41.3-9.1-25.6-9.1-25.6l-1.6-18c-5.5-7.2-8.1-47.1-8.1-47.1l-5.9-20c.1.9 3.2 17.7 0 20.8s-4.5 16.8-4.5 16.8 3.2 37.8 0 45.5.9 12 .9 12l.6 39.3s-2.8 10.5.3 25.4 0 37.8 0 37.8h-31.2l.1-16-5.1-13.6s-3.5-56-6.2-68.2c-1.6-7.2-.6-14.7 2.9-21.2 0 0-5.8-9.2-5.5-15.8s-4.4-18.9-4.4-18.9l-6.7-45.7c.2-8.8-.9-17.5-3.3-26-3.9-13-9.7-30-9.7-30l6.5.6 32.9 2.9s80-5.4 83.6-.9c.8 1.5 1.3 3 1.5 4.7 3.6 16.2 8.3 66.7 8.3 66.7s9.7 39.4 5.5 43.3-3.6 16.6-3.6 16.6c6.3 11.8 2.7 33.9 2.7 33.9z"/><path class="st11" d="M147.3 798.1c-.2 3.6-4.2 3.8-4.2 3.8-11.7 1.8-14.2 6.4-14.2 6.4s-11.3 11.2-28.2 9.6c-14.4-1.4-13-4-12.3-8.7.1-.9.2-1.8.2-2.7 0-6.5 5-8.3 12.8-13.2s7.6-9 10.8-12.6 3.6-10.5 3.6-10.5c3.7-6.4 13 1 13 1 .4 2.3 14.3 2 14.3 2s1.8 7.4 2.8 7.8c.6.3 1.1 6.1 1.3 11 .2 2.6.2 4.9.1 6.1z"/><path class="st12" d="M147.3 798.1c-.2 3.6-4.2 3.8-4.2 3.8-11.7 1.8-14.2 6.4-14.2 6.4s-11.3 11.2-28.2 9.6c-14.4-1.4-13-4-12.3-8.7 6.4 1.6 18.7 3.8 25.9-.1 10-5.4 17.1-9.2 17.1-9.2l15.7-8c.3 2.6.3 5 .2 6.2z"/><path class="st11" d="M235.5 817.4c-.8 1.4-2.1 2.5-3.6 3-.1 0-.2.1-.3.1-4.8 1-23.2 1-23.2 1s-18.7-14.5-24.3-14.8-8.7-5.2-8.7-5.2.1-3.4.5-7.3c.4-4.6 1.2-10 2.6-11.4 2.5-2.6 3-6.2 8.7-3.9 0 0 8-14.1 17.4-3.2l9.8 14.8s1.8 6.2 14.2 12.8c4.9 2.7 7.2 5.8 7.8 8.6.3 1.9 0 3.9-.9 5.5z"/><path class="st12" d="M235.5 817.4c-1.1.9-2.3 1.9-3.6 3-.1 0-.2.1-.3.1-4.8 1-23.2 1-23.2 1s-18.7-14.5-24.3-14.8-8.7-5.2-8.7-5.2.1-3.4.5-7.3c5.7 1.7 14.4 4.8 16.8 8 3.6 5 14.4 11.9 14.4 11.9s20.2-1.9 29.2-2.2c.4 1.9.1 3.9-.8 5.5z"/><path class="st9" d="M156.7 313.3L130 341.5s-32.3-2.4-26.7-11.9c2.9-4.9 3.3-15 3.1-23.9-.2-8.5-1.1-15.8-1.1-15.8s45.3-22.5 41.8-1.5c-.7 4-.8 8-.1 12 2 10.6 9.7 12.9 9.7 12.9z"/><path class="st12" d="M147.2 288.4c-.7 4-.8 8-.1 12-6.3 6.3-14.8 9.9-23.7 9.9-6.2 0-12.8-5-17.7-8-.2-8.5-.3-12.4-.3-12.4s45.2-22.6 41.8-1.5z"/><path class="st9" d="M156.7 275.1c0 18.4-14.9 33.4-33.4 33.4-18.4 0-33.4-14.9-33.4-33.4 0-18.4 14.9-33.4 33.4-33.4 7.6 0 14.9 2.6 20.8 7.3 8 6.4 12.6 16 12.6 26.1z"/><path class="st12" d="M202.1 525.6c-8.3 19.8-61.8 20.2-61.8 20.2v-21.6l-3.2-.2c1.4 6.2-2 21.2-2 21.2-42.2 6-52.5-18.1-52.5-18.1l1.5-8.2 32.9 2.9s80-5.4 83.6-.9c.7 1.5 1.3 3.1 1.5 4.7z"/><path class="st13" d="M140.4 543.2v-21.6l-3.2-.2c1.4 6.2-2 21.2-2 21.2-31.8 4.5-45.5-8-50.3-14.5-.9-1.1-1.6-2.3-2.2-3.6L95.5 452l3-106.8 4.7-18.7 1.1-9v-.1h.1l3.3 1.4 19.7 8.5 22.5-16.9.3-.2 1.1-.8 1.9 1.5 4.6 3.7 14.7 95.1s25.6 73.3 30.3 102.8c.2 1.2.4 2.3.5 3.3 2.9 26.9-62.9 27.4-62.9 27.4z"/><circle class="st14" cx="129.7" cy="329.3" r="1.9"/><circle class="st14" cx="130.6" cy="346.6" r="1.9"/><circle class="st14" cx="132.5" cy="374.7" r="1.9"/><circle class="st14" cx="135.6" cy="404.9" r="1.9"/><circle class="st14" cx="137.5" cy="433.3" r="1.9"/><circle class="st14" cx="139.4" cy="463.6" r="1.9"/><circle class="st14" cx="138.7" cy="493.5" r="1.9"/><path class="st12" d="M105.5 462.5s-2.1 27.8-6 35.9-5.6 30.8-5.6 30.8l-9-1c-.9-1.1-1.6-2.3-2.2-3.6L95.6 452l3-106.8 4.7-18.7 1.1-9h.1c1-.5 2.2-.5 3.2 0l.4.2c-.1.4-.3.8-.4 1.1-3.5 11-4.8 31.4-4.8 31.4s5.1 37.3 5.6 54.6-3 57.7-3 57.7z"/><path class="st12" d="M83.3 523.8c-.1.2-.2.5-.3.7-3.5 5.9-12.4 9.7-15.1 10.7l-.8-1.4L69 525l9.9-4c1.5.8 3 1.7 4.4 2.8z"/><path class="st14" d="M59.2 382l-8.2 4.9-7.5 33.4s-9.4 28.3-2.2 48.5 11.4 31.8 11.4 31.8 2.9 23 7.2 24.8 6.2 2.9 6.2 2.9l.9 5.5s11.8-4 15.9-11-3.1-24.5-3.1-24.5-6.2-14.9-4.6-21.8-3.2-25.1-3.2-25.6-.4-10.1 3-17.6 1.2-10.6 1.2-10.6L74 401.5 59.2 382z"/><path class="st12" d="M202.8 519.4s-21.8 8.2-28.8 1-6.2-41-6.2-41-6.6-62.4-10.8-72.7-2-84.2-2-84.2-2.8-9.5-5.3-12.1c-.2-.2-.3-.3-.5-.4l.9.2 3 .6 4.6 3.7 14.7 95.1s25.6 73.3 30.3 102.8l.1 7z"/><path class="st12" d="M227.9 521.5h-.2c-2.7.3-27 3.3-27.1-1.8 0-.6 0-1.2.1-1.8l22.5-2.3 4.4 4.6c.1.3.1.6.2.8l.1.5z"/><path class="st14" d="M204.7 348.5l15.9 8.3s13.2 34.4 15.4 49.1c0 0 9.8 39.5 3 55.7s-6.2 48.5-6.2 48.5-3.9 5.9-5.5 4.3.6 6.2.6 6.2-27.2 3.6-27.4-1.7 6.2-30.9 6.2-30.9 1.7-60.8-.7-70.4-1.3-69-1.3-69.1z"/><path class="st12" d="M157.1 413.3s-9 22-11.9 23.4.6 7.2.6 7.2 16.4-22.8 11.3-30.6zm-5.3-77c.1-.4-10.7 10.6-13.6 12.2s10.5 0 13.6-12.2zm-30.1 75.3s-16.5 10.7-14.3 14.9 14.3-14.9 14.3-14.9zm30 155.4s14 9 35.8 11.3L151.7 567zM118 588.7s13 16.3 18.9 16.8-18.9-16.8-18.9-16.8zm18.2 64c-.6.3-7.4 14.7-14.3 15.2s14.3-15.2 14.3-15.2zm60.2 31.6s12.9-2.9 15.7 6.4c.1 0-.8-2.9-15.7-6.4zm-8.6 52.9s15.6-3.2 18.9 1.2-18.9-1.2-18.9-1.2zm-44.2 7.4c0 .1-15.9 3.2-15.3 5.2s16.9 1.7 17.5-1.5c.5-1.6-.5-3.3-2.1-3.7h-.1zm39 13.7s26.1-3.2 24.5 2.3-24.5-2.3-24.5-2.3zM45.9 436.7c.2.4 17.2 2.7 19.5 8.2 0 0-16.8-7.8-19.3-7.8m23.8 44.3s-14.2 4.5-13.2 11.3-1.4-3.2 13.2-11.3zm-6.6 34.4s5.2-7.1 10.1-5.8-10.1 5.8-10.1 5.8zm80.9-266.7c-.5.5-1.1.9-1.7 1.2-4.1 2.4-5.2 6-7.2 10.3-1.8 3.9-3.8 8-7.4 10.2-4.7 2.8-10.9 1.8-15.8 4.3-4.4 2.3-7 7.1-6.5 12.1.3 1.9.8 3.7 1.4 5.5 1.1 3.9 1.6 7.9 1.5 12v.4c-16.5-8.2-23.2-28.3-15-44.8s28.3-23.2 44.8-15c2.1 1 4.1 2.3 5.9 3.8z"/><path class="st15" d="M143.3 239c-3.7-7.7-11.6-12.6-19.8-15-6.3-1.8-13.1-2.4-19.3-.4-3.5 1.1-6.8 3-10.1 4.7-6.2 3.1-13 5.6-17.7 10.7-1.1 1.2-2.1 2.7-1.8 4.3.2 1.2 1.2 2.1 1.8 3.1 1.3 2.3 1 5.3.1 7.8-.9 2.6-2.2 4.9-2.9 7.5s-.4 5.7 1.6 7.6c.9.7 1.9 1.4 2.9 2.1 1.1.9 2 2 2.8 3.1l5.5 7.5c2.6 3.3 4.9 6.9 6.9 10.6 1.4 2.7 2.4 5.6 4.3 8.1s4.7 4.4 7.7 4.1c.5 0 .9-.2 1.2-.6.1-.2.2-.5.2-.8.1-4.1-.4-8.1-1.5-12-.6-1.8-1.1-3.7-1.4-5.5-.5-5 2.1-9.8 6.5-12.1 4.9-2.5 11.1-1.4 15.8-4.3 3.6-2.2 5.6-6.3 7.4-10.2 2-4.2 3.1-7.9 7.2-10.3s4.6-5.9 2.6-10z"/><path class="st12" d="M128.3 784.5s5.1 6.5 3.8 10.2-3.8-10.2-3.8-10.2zm69.1 16.3s1.1-8.7 5.7-8.8 4.8-.5 8.2.9 6.7 3.4 5.7 3.7-6-5-11-2.3c-3.2 1.7-6.1 3.9-8.6 6.5zm-84.3-462.7l14.2-10s-20.9-12.4-23.4-10.6-4.2 17.3-4.2 17.3l13.4 3.3z"/><path class="st13" d="M113.1 337.5l14.3-10.2s-20.9-12.4-23.4-10.6-4.2 18.2-4.2 18.2l13.3 2.6z"/><path class="st16" d="M113.1 337.5l14.3-10.2s-20.9-12.4-23.4-10.6-4.2 18.2-4.2 18.2l13.3 2.6z"/><path class="st14" d="M106.3 316.8l-.4-.2c-1.3-.7-2.9-.5-4 .4L59 351.8s-9.3 12.9-8 35.1l25.3 35.8s2.9-12.1 6.4-9.8c0 0 4.9 62.1 0 71.1s-7.1 42.5-7.1 42.5l16.6 1.9s1.7-22.7 5.6-30.8 6-35.9 6-35.9 3.5-40.4 2.9-57.7-5.6-54.6-5.6-54.6 1.4-21.9 5.2-32.6z"/><path class="st12" d="M149 331.8l-17.8-6.6s22.7-24.8 25.5-11.1l-7.7 17.7z"/><path class="st13" d="M149 330.9l-17.8-6.6s22.7-24.9 25.5-11.1l-7.7 17.7z"/><path class="st16" d="M149 330.9l-17.8-6.6s22.7-24.9 25.5-11.1l-7.7 17.7z"/><path class="st12" d="M148.4 309.8c.3 0 .5 0 .7.1l-.7-.1z"/><path class="st14" d="M150.2 308.1l47.3 10.2s13 2.9 22.4 35.5-12.9 72.7-12.9 72.7l-4.9-4.2 2.5 95.4s-21.8 8.2-28.8 1-6.2-41-6.2-41-6.6-62.4-10.8-72.7-2-84.2-2-84.2-4-13.3-6.6-12.7z"/><path class="st12" d="M193.4 368.8c-.7.6-1.4 29.5 1.4 51.4 1.8 13.4 4.5 26.6 8.2 39.6l-4.3-88c.1 0-3.3-4.9-5.3-3zm-5.8-24.8c1.2.7 6.2 12.7 3.9 17.6s-3.9-17.6-3.9-17.6zM143 239c-2.3-4.6-5.9-8.4-10.4-10.9 3.3 2.4 6 5.5 7.8 9.1 2 4.1 1.4 8.1-2.5 10.4s-5.2 6-7.2 10.3c-1.8 3.9-3.8 8-7.4 10.2-4.7 2.8-10.9 1.8-15.8 4.3-4.4 2.3-7 7.1-6.5 12.1.3 1.9.8 3.7 1.4 5.5 1.1 3.9 1.6 7.9 1.5 12 0 .3 0 .5-.2.8-.3.4-.7.6-1.2.6-1.2.1-2.5-.1-3.6-.7 1.6 1.6 3.9 2.5 6.2 2.4.5 0 .9-.2 1.2-.6.1-.2.2-.5.2-.8.1-4.1-.4-8.1-1.5-12-.6-1.8-1.1-3.7-1.4-5.5-.5-5 2.1-9.8 6.5-12.1 4.9-2.5 11.1-1.4 15.8-4.3 3.6-2.2 5.6-6.3 7.4-10.2 2-4.2 3.1-7.9 7.2-10.3s4.5-6.2 2.5-10.3z"/><ellipse class="st0" cx="968.2" cy="761.7" rx="41" ry="5.6"/><ellipse class="st0" cx="646.8" cy="814.6" rx="29.1" ry="4"/><ellipse class="st0" cx="386.1" cy="784.9" rx="29.1" ry="4"/><path class="st4" d="M402.1 775.8c1.8-1.5 3.2-3.5 3.8-5.8.5-2.3-.5-5-2.7-5.9-2.5-.9-5.1.8-7.1 2.5s-4.3 3.7-6.9 3.3c2.7-2.5 4-6.2 3.2-9.8-.1-.7-.4-1.4-.9-2-1.4-1.5-3.9-.8-5.5.3-5.2 3.7-6.6 10.7-6.7 17.1-.5-2.3-.1-4.7-.1-7s-.6-5-2.6-6.2c-1.2-.7-2.6-1-4-1-2.3-.1-4.9.2-6.5 1.9-2 2.1-1.5 5.7.2 8s4.4 3.8 6.8 5.4c1.9 1.2 3.6 2.7 4.8 4.6.1.3.3.5.4.8H393c3.4-1.6 6.4-3.7 9.1-6.2zm582.8-21.1c1.8-1.5 3.2-3.5 3.9-5.8.5-2.3-.5-5-2.7-5.9-2.5-.9-5.1.8-7.1 2.5s-4.3 3.7-6.9 3.3c2.7-2.5 4-6.2 3.2-9.8-.1-.7-.4-1.4-.9-2-1.4-1.5-3.8-.8-5.5.3-5.2 3.7-6.7 10.7-6.7 17.1-.5-2.3-.1-4.7-.1-7s-.7-5-2.6-6.2c-1.2-.7-2.6-1-4-1-2.3-.1-4.9.2-6.5 1.9-2 2.1-1.5 5.7.3 8s4.3 3.8 6.8 5.4c1.9 1.2 3.6 2.7 4.8 4.6.1.3.3.5.4.8H976c3.1-1.6 6.2-3.7 8.9-6.2zm-330.2 46.8c1.8-1.5 3.2-3.5 3.8-5.8.5-2.3-.5-5-2.7-5.9-2.5-.9-5.1.8-7.1 2.5s-4.3 3.7-6.9 3.3c2.7-2.5 4-6.2 3.2-9.8-.1-.7-.4-1.4-.9-2-1.4-1.5-3.8-.8-5.5.3-5.2 3.7-6.7 10.7-6.7 17.1-.5-2.3-.1-4.7-.1-7s-.7-5-2.6-6.2c-1.2-.7-2.6-1-4-1-2.3-.1-4.9.2-6.5 1.9-2 2.1-1.5 5.7.3 8s4.3 3.8 6.8 5.4c2 1.2 3.6 2.8 4.9 4.7.1.3.3.5.4.8h14.6c3.3-1.7 6.3-3.9 9-6.3z"/><linearGradient id="SVGID_5_" gradientUnits="userSpaceOnUse" x1="944.1151" y1="-11.9818" x2="944.1151" y2="569.5405" gradientTransform="matrix(1 0 0 -1 -88.27 806.92)"><stop offset="0" stop-color="gray" stop-opacity=".25"/><stop offset=".54" stop-color="gray" stop-opacity=".12"/><stop offset="1" stop-color="gray" stop-opacity=".1"/></linearGradient><path d="M948.6 345.2c-13.1-.3-24.7-9.6-31.3-20.8-1.7-2.7-2.8-5.7-3.2-8.9 0-.7.2-1.4.4-2.1.4-1.1.8-2.1 1-3.3.1-.4.1-.9 0-1.3v-.1c.3-2.4-1.1-4.8-2.9-6.4s-4-2.9-5.8-4.5c-5.6-5-7.3-12.9-7.5-20.5v-.4c.1-3.2.3-6.5.3-9.7 0-1.8 0-3.7-.2-5.5-.5-4.6-2.3-9.2-5.9-12.2-9.4-7.6-25.2.3-34.9-6.9-2.4-1.8-4.3-4.4-7.1-5-2.2-.5-4.4.2-6.5.9-7.2 2.4-15.1 5.5-17.9 12.4-1.6 4-1.2 8.5-2.6 12.5-1 2.7-2.8 5-4.1 7.6-1.1 1.9-1.6 4.1-1.5 6.3-.1 1.1.1 2.3.5 3.4.5 1.3 1.3 2.4 2.3 3.3-.4.8-.8 1.5-1.4 2.2-1.8 2.2-4.6 3.8-6.5 6-3.5 4.1-3.4 9.6-1.7 14.4s4.9 9.2 7 13.8c.9 2 1.7 4.3.7 6.3-.7 1.4-2.1 2.5-3.2 3.7-1.6 1.8-2.6 4-2.9 6.4-21.4 4.9-21.4 22.1-21.4 22.1L780.7 388s-1.8 4.9-4 11.4L763 397l9.5 15.9c-1.8 6.5-3.1 12.5-2.7 15.5 0 0-4.2 20 3.3 23.5l16.7 7.5c.7.4 1.5.8 2.3 1l.7.3c.5.2 1.1.2 1.6 0h.3c.3 0 .7 0 1-.1.4-.2.7-.5.8-.9v-.1l5-1.5 4.2 5c1.9 1.3 3.8 2.5 5.6 3.6l-6.5 65.2s-1.1 86.7-4.2 106.4c-1.2 7.3-1.2 12.3-.8 15.7l-.1.2c.8 5.6 2.8 6.7 2.8 6.7v-.1l.1.1c1-2.5 2.1-5 3.4-7.3v1.4c-.1 7.4-.3 17.7-1 24.3-1.3 11.4 3.3 49.1 3.3 49.1l1.6 34.3c.3 5.8-1.1 11.6-3.9 16.7-3.8 6.8-8.7 16.5-9 20.8v.7l-8.4 9.7s-3.2 4.9 4 6.9c3.9 1.1 10.6 0 15.9-1.3 4.8-1.1 8.3-5.4 8.3-10.3 1.4-4.7 3.7-9.1 6.8-12.9l1.3 7.9 9 2.2 1.2-21.6c.5-1.2.7-2.5.6-3.8 1.8-15.4-4.2-14-4.2-14 .2.1.3.3.3.5-.1-.2-.2-.3-.3-.5-3.7-7.2-1.9-19-1.9-19s4.7-34.3 6.4-43.3c1.2-6.4.7-27.3.3-39.1v-1.4c13.9-.2 31-.7 43-1.8v1.4l-2.2 81c-.1 5.2-1.2 10.3-3.1 15.1 0 .1-.1.2-.1.3-2.7 6.8-4.2 13.9-4.5 21.2l-1 25.7v.7c-1.8.7-4.6 2.7-4.7 8.5-.1 8.5 14.8 5.6 14.8 5.6 14.9 0 15-15.5 15-15.5s.5-14.2 1.2-23.7-2.2-7.4-2.2-7.4l-.2 27v.2-23.7l.2-3.4V771.3l1.8-27.9s13.7-46.5 15.8-55.4c1.5-6.3.9-25.4.4-36 0-.5 0-1-.1-1.4 4.2-.4 8-.4 9.5-.4h.7s-.7-74.7-2.5-102.9-4.6-53.9-11.7-61.6c-4.3-4.7-10.2-19.1-14.3-29.9 8.5 3.7 17.3 6.5 26.2 8.6 22.5 4.7 19.4-14.8 19.4-14.8l-2.3-36.9h.2c-.1-9.7-.9-19.3-2.5-28.8-1.2-7.3-3-14.9-5.8-21 2.4-.9 4.8-2 7.2-3 6.1-2.7 13-6.5 13.9-13.1h-.3c.4-.7.4-1.2.5-1.6zm-139.2 53.3c.1 3.8-.1 10.4-.3 17.7l-7.1-9.5 7.2-11.6.2 3.4zm98.5 33.7l-11.9-3.8c2.1-3.3 4.6-6.3 7.3-9.1l1-1-.4.1.6-.5.3-.1-.5.5.7-.1c.7 3 2.1 5.8 4 8.1 4.3 4.7-1.1 5.9-1.1 5.9z" fill="url(#SVGID_5_)"/><path d="M835.7 775l-1.4 26.3-8.9-2.2-1.9-11 12.2-13.1z" fill="#a27772"/><path class="st12" d="M835.7 775l-1.4 26.3-8.9-2.2-1.9-11 12.2-13.1z"/><path class="st19" d="M868.2 804.8l13.5 2.8 10-8.9v-25l.2-3.4V769.5l1.8-27.7s13.5-46.2 15.6-55c1.5-6.3.9-25.3.4-35.7-.2-4.3-.4-7.2-.4-7.2l-29.8-7.2-.6 23-2.2 80.4c-.1 5.1-1.2 10.2-3.1 15l-.1.3c-2.6 6.7-4.1 13.9-4.3 21.1l-1 25.5v2.8z"/><path class="st12" d="M892 769.6v.7-.7zm-23.8 35.2l13.5 2.8 10-8.9v-2.1c-.1 1-.6 1.8-1.4 2.3l-.1.1c-4.7 2.5-9.9 3.5-15.2 3l-5.3-.5c-.5.1-.9.2-1.4.3v.7l-.1 2.3z"/><path class="st11" d="M890.2 799.7l.1-.1c.9-.5 1.5-1.5 1.5-2.5l.2-26.9s2.9-2.1 2.2 7.4-1.2 23.5-1.2 23.5-.1 15.4-14.8 15.4c0 0-14.7 2.8-14.6-5.6s6.1-8.7 6.1-8.7l5.3.5c5.3.5 10.6-.6 15.2-3z"/><path class="st19" d="M797.8 799.1c.3 6.1 18.2 2.6 18.2 2.6l12-23.3s10-7.7 5-14.5c-.3-.4-.5-.8-.7-1.2v-.1c-.1-.2-.2-.4-.3-.5-3.6-7.1-1.8-18.8-1.8-18.8s4.7-34 6.3-43c1.2-6.3.7-27.1.3-38.8-.2-4.8-.3-8.1-.3-8.1l-29.6-7.9v8.8c-.1 7.3-.3 17.5-1 24.2-1.3 11.3 3.3 48.7 3.3 48.7l1.6 34.1c.2 5.8-1.1 11.5-3.9 16.5-3.7 6.8-8.6 16.4-8.9 20.6-.2.2-.2.5-.2.7z"/><path class="st12" d="M797.8 799.1c.3 6.1 18.2 2.6 18.2 2.6l12-23.3s10-7.7 5-14.5c-.3-.4-.5-.8-.7-1.2-.2 3.5-4 12.3-4 12.3s-9.9 19.8-13 24.4-16.8-.8-17.4-1c0 .2-.1.5-.1.7z"/><path class="st11" d="M832 762.1s5.9-1.4 4.1 13.9c.1 3.5-1.6 6.9-4.7 8.7-4.2 2.6-10.7 8.3-13.9 19.3 0 4.9-3.4 9.2-8.1 10.3-5.3 1.2-11.9 2.3-15.7 1.2-7.1-2-4-6.9-4-6.9l8.2-9.7s14.2 5.6 17.4 1 13-24.4 13-24.4 5.4-12.1 3.7-13.4z"/><path class="st12" d="M879.7 639.5l-.6 23c8-.8 13.6-1.8 14.6-3.4 2.1-3.2 9.7-4.6 16.2-5.2-.2-4.3-.4-7.2-.4-7.2l-29.8-7.2zm-72.9 17.6c.8-1.6 1.9-2.9 3.3-3.9 3.2-1.8 2.8 11.2 2.8 11.2s10.5.1 23.8-.1c-.2-4.8-.3-8.1-.3-8.1l-29.6-7.9v8.8z"/><path class="st10" d="M803.4 660.1s3.5-9.5 6.6-11.2 2.8 11.2 2.8 11.2 76.9.7 80.8-5.2 26.2-5.6 26.2-5.6-.7-74.2-2.5-102.1-4.5-53.5-11.5-61.2c-4.5-5-11-21.1-14.9-31.8-2.2-5.9-3.6-10.1-3.6-10.1l-73.4 4.2-.6 5.9-7.8 78s-1 86-4.2 105.6 2.1 22.3 2.1 22.3z"/><g class="st20"><path d="M887.7 654.9c3.8-5.9 26.2-5.6 26.2-5.6s-.7-74.2-2.5-102.1S907 493.7 900 486c-4.5-5-11-21.1-14.9-31.8-1.8-4.9-3.1-8.7-3.5-9.8l5.7-.3s1.4 4.3 3.6 10.1c4 10.7 10.4 26.9 14.9 31.8 7 7.7 9.8 33.2 11.5 61.2s2.4 102.1 2.4 102.1-22.4-.4-26.2 5.6c-3.3 5.1-59.9 5.3-76.3 5.3 21-.1 67.5-.7 70.5-5.3zm-83.6-6c1.4-.8 2.1 1.4 2.5 4-1.3 2.3-2.4 4.7-3.3 7.2 0 0-2-1.1-2.8-6.6 1.1-2 2.4-3.9 3.6-4.6z"/></g><path class="st15" d="M826.1 264.6c-5.1 6.9.1 16.8-5.4 23.5-1.8 2.2-4.6 3.8-6.5 6-3.5 4.1-3.3 9.6-1.6 14.3s4.8 9.1 6.9 13.7c.9 2 1.7 4.3.7 6.3-.7 1.4-2 2.4-3.1 3.6-3.5 3.9-3.6 9.4-1.7 14s5.5 8.6 9 12.5c1.4 1.5 3.2 3.2 5.5 3.2 1.2-.1 2.4-.5 3.5-1.1 8.3-4.4 14.6-11.8 17.6-20.6 2.5-8.4 2-17.3-1.5-25.4-3-7.1-7.9-13.9-7.9-21.3 0-5.9 3-11.6 3.6-17.5.7-7.2-3.6-18.6-12.2-21.7.5 4.6-4.3 7-6.9 10.5z"/><path class="st12" d="M826.1 264.6c-5.1 6.9.1 16.8-5.4 23.5-1.8 2.2-4.6 3.8-6.5 6-3.5 4.1-3.3 9.6-1.6 14.3s4.8 9.1 6.9 13.7c.9 2 1.7 4.3.7 6.3-.7 1.4-2 2.4-3.1 3.6-3.5 3.9-3.6 9.4-1.7 14s5.5 8.6 9 12.5c1.4 1.5 3.2 3.2 5.5 3.2 1.2-.1 2.4-.5 3.5-1.1 8.3-4.4 14.6-11.8 17.6-20.6 2.5-8.4 2-17.3-1.5-25.4-3-7.1-7.9-13.9-7.9-21.3 0-5.9 3-11.6 3.6-17.5.7-7.2-3.6-18.6-12.2-21.7.5 4.6-4.3 7-6.9 10.5zm56.4 252.1c-10.2.5-19.8 4.9-28.7 9.9s-17.5 10.6-27.1 14.1m49.5 0c-10.1 1-19.5 5.5-26.4 12.8-2.5 2.6-4.6 5.6-7.2 8.1-4 3.8-8.8 6.6-14.2 8m49.9-10.7c-8.1 2.3-15.5 6.7-21.2 12.8-1.6 1.7-3 3.5-4.5 5.2-8.4 9-20.3 13.8-31.8 18.4"/><path class="st19" d="M877.4 305.8c.2 8.1.9 16.2 2.1 24.3.9 5.7 2.3 10.9 4.2 13.1 5.6 6.6-27.3 15.6-27.3 15.6l-19.4-15s15.4-14.2 8.2-28 32.2-10 32.2-10z"/><path class="st12" d="M813.3 454.1H891c-2.2-5.9-3.6-10.1-3.6-10.1l-73.4 4.2-.7 5.9z"/><path class="st14" d="M808.3 452.7h83c-2.3-8.3 0-16.1 3.3-22 2.3-4.2 5.3-8 8.7-11.3l.6-.5 29-6.4 1.6-.3s.2-52.7-18.4-59.9-29.8-17-29.8-17l-25.6 7.9-18.9-9.5c-6.1 6.5-22.2 4-22.2 4-26.3 3-26.3 22.9-26.3 22.9s15.4 35.9 16.6 35.9-1.6 56.2-1.6 56.2z"/><path class="st12" d="M837 419.2s-16.9-3.8-22.7-10.3m108-9.3l-19.6 16.1c.1 1.3.4 2.5.7 3.8l.6-.5 29-6.4-10.7-13zm-53.1 47.5s4.3 2.4 10.9 5.6h11.3c-2.3-8.3 0-16.1 3.3-22l-19.9-6.5c6.7 6.4-5.6 22.9-5.6 22.9z"/><path class="st14" d="M804.8 354.1l-11.7 6.3-11.4 28.9S769.8 421 771 429.4c0 0-4.2 19.8 3.3 23.3l19.5 8.8c.9.4 2 0 2.4-.9.2-.5.2-1.1-.1-1.6-2.8-5.2-5.8-13.5-1-18l-5.6-11.6 20.3-33.1 6.8-11.4-11.8-30.8z"/><path class="st12" d="M830.7 412.6c1 4.1 4.4 10.5 15.7 12.8l12.4 10.1 13.2 6 5.4 2.4 2.3-16.4-5.2-2.8-6-3.3s-13.6-24.6-35.1-14.2c-2.1 1-3.2 3.2-2.7 5.4z"/><path class="st19" d="M831.4 411.2c1 4.1 4.4 10.5 15.7 12.8l12.4 10.1 13.2 6 5.4 2.4 2.3-16.4-5.2-2.8-6-3.3s-13.6-24.6-35.1-14.2c-2.1 1-3.2 3.2-2.7 5.4z"/><circle class="st12" cx="855.7" cy="297.1" r="30.1"/><circle class="st19" cx="855.7" cy="296.4" r="30.1"/><path class="st12" d="M874.3 360.6l-9-17.6s13.2-5.3 14.2-11.5 12.7 7.3 10.1 11.7-15.3 17.4-15.3 17.4z"/><path class="st14" d="M874.3 359.2l-9-17.6s13.2-5.3 14.2-11.5 12.7 7.3 10.1 11.7-15.3 17.4-15.3 17.4z"/><path d="M800.3 404.6l50 67.2s-18.4 10-43.8-7.9l-11-13-31.2-52.7 36 6.4z" fill="#f6f8fb"/><path class="st19" d="M790.5 441.2l4.5-.1s27.8-27 34.6-13.3-17.3 26.4-17.3 26.4l-7.3 4-9.6 2.8-6.1-8.2 1.2-11.6z"/><path class="st12" d="M797.2 455.8c.4 1.5.8 3.3.1 4.7-.2.4-.5.7-.8.9-.3.1-.7.2-1 .1-2.4-.2-4.6-1.3-6.3-3.1-1.6-1.8-3-3.8-4.1-5.9-1.2-2.1-2.5-4.5-2.1-7 .5-2.7 2.9-4.5 5.2-6 4.6-3 4.7.5 5.8 4.4l3.2 11.9z"/><path class="st14" d="M796.5 455.8c.4 1.5.8 3.3.1 4.7-.2.4-.5.7-.8.9-.3.1-.7.2-1 .1-2.4-.2-4.6-1.3-6.3-3.1-1.6-1.8-3-3.8-4.1-5.9-1.2-2.1-2.5-4.5-2.1-7 .5-2.7 2.9-4.5 5.2-6 4.6-3 4.7.5 5.8 4.4l3.2 11.9z"/><path class="st12" d="M809.7 396.3l2.3-3.9-2 7.3-.3-3.4zm63 43.8l5.4 2.4 2.3-16.4-5.2-2.8c3.5 4.1.4 11.6-2.5 16.8zm21.5-19s-17.3 1-24.7-3.7"/><g class="st20"><path d="M892.1 432.1c2.3-4.2 5.3-8 8.7-11.3.8-.5 1.7-1 2.6-1.4l27-5.5 1.6-.3s.2-52.7-18.4-59.9c-10.5-4-20.3-9.5-29.1-16.4l2-.6s11.2 9.8 29.8 17 18.4 59.9 18.4 59.9h-2.8l-27.6 5.3-1.6 1.5c-3.5 3.5-6.4 7.4-8.8 11.7-3.6 6.8-4.5 14.7-2.3 22.1h-2.9c-2.3-8.4.1-16.2 3.4-22.1zm-73.7-93c.5-.1.9-.1 1.3-.2 1.9.3 3.8.4 5.7.5-2.3.1-4.7 0-7-.3zm39.6 5.4l-17.1-8.6c.4-.3.7-.6 1-.9l17.8 9-1.7.5z"/></g><path class="st14" d="M923 398.2l11.4 14 2.3 38s3 19.4-19.1 14.7-47.8-19.1-47.8-19.1 12.4-16.6 5.6-22.9l31.7 10.3s5.4-1.2 1.2-5.8-4.9-13.1-4.9-13.1l19.6-16.1z"/><path class="st12" d="M928.2 438.3l6.3 7.2c-3.3-1-5.8-3.8-6.3-7.2zm-10.8-1.2l9.8 12.6-4.9 1.2-4.9-13.8zm-97.6-154.5c-1.1-2.6-.3-5.7 1-8.2s3.1-4.8 4-7.5c1.5-4 1-8.5 2.6-12.4 2.8-6.9 10.6-10 17.7-12.3 2.1-.7 4.3-1.4 6.4-.9 2.8.7 4.7 3.3 7 5 9.6 7.1 25.2-.7 34.4 6.8 3.5 2.9 5.3 7.5 5.8 12.1s0 9.1 0 13.7c-.2 8 1.3 16.8 7.3 22.1 1.8 1.6 3.9 2.8 5.7 4.5s3.2 4 2.8 6.4c-.2 1.1-.6 2.2-1 3.2-1.2 4.2.6 8.6 2.8 12.4 6.5 11.2 17.9 20.4 30.8 20.7-.9 6.5-7.7 10.3-13.7 13-7.7 3.4-15.7 6.8-24.1 6.3s-17.1-5.8-18.6-14c-.5-2.8-.4-6.3-2.9-7.8-1.5-.9-3.4-.7-5-1.4-2.3-1-3.5-3.5-4.2-5.9-1.6-4.9-2.4-10.1-2.5-15.2-.1-6.1.7-12.8-2.8-17.9-3.2-4.7-8.9-7-12.7-11.3-3.4-4-7.2-8.8-12.8-9.5-7.4-1.2-23.4 9.3-28-1.9z"/><path class="st15" d="M819.8 281.2c-1.1-2.6-.3-5.7 1-8.2s3.1-4.8 4-7.5c1.5-4 1-8.5 2.6-12.4 2.8-6.9 10.6-10 17.7-12.3 2.1-.7 4.3-1.4 6.4-.9 2.8.7 4.7 3.3 7 5 9.6 7.1 25.2-.7 34.4 6.8 3.5 2.9 5.3 7.5 5.8 12.1s0 9.1 0 13.7c-.2 8 1.3 16.8 7.3 22.1 1.8 1.6 3.9 2.8 5.7 4.5s3.2 4 2.8 6.4c-.3 1.1-.6 2.2-1 3.2-1.2 4.2.6 8.6 2.8 12.4 6.5 11.2 17.9 20.4 30.8 20.7-.9 6.5-7.7 10.3-13.7 13-7.7 3.4-15.7 6.8-24.1 6.3s-17.1-5.8-18.6-14c-.5-2.8-.4-6.3-2.9-7.8-1.5-.9-3.4-.7-5-1.4-2.3-1-3.5-3.5-4.2-5.9-1.6-4.9-2.4-10.1-2.5-15.2-.1-6.1.7-12.8-2.8-17.9-3.2-4.7-8.9-7-12.7-11.3-3.4-4-7.2-8.8-12.8-9.5-7.4-1.2-23.4 9.3-28-1.9z"/><path class="st12" d="M841.1 358.5l17.2-14s-11.8-6.4-13.2-11.9-10.8 2.6-9.9 7.5 5.9 18.4 5.9 18.4z"/><path class="st14" d="M841.8 356.4l17.2-14s-11.8-6.4-13.2-11.9-10.8 2.6-9.9 7.5 5.9 18.4 5.9 18.4z"/><circle class="st12" cx="859.7" cy="354.1" r="1.4"/><circle class="st12" cx="859.7" cy="361.7" r="1.4"/><circle class="st12" cx="859.7" cy="369.3" r="1.4"/><g class="st20"><path d="M826.7 261.8c1.4-3.8 1.1-7.9 2.3-11.7-.6.8-1.1 1.7-1.5 2.7-1.6 3.9-1.1 8.4-2.6 12.4 0 .1-.1.1-.1.2.8-1.2 1.4-2.4 1.9-3.6zM935.5 356c-7.7 3.4-15.7 6.8-24.1 6.3s-17.1-5.8-18.6-14c-.5-2.8-.4-6.3-2.9-7.8-1.5-.9-3.4-.7-5-1.4-2.3-1-3.5-3.5-4.2-5.9-1.6-4.9-2.4-10.1-2.5-15.3-.1-6.1.7-12.8-2.8-17.9-3.2-4.7-8.9-7-12.7-11.3-3.4-4-7.2-8.8-12.8-9.5-7.7-1-23.8 9.5-28.3-1.7-.7-2.1-.6-4.4.3-6.5-.3.6-.7 1.1-.9 1.7-1.3 2.5-2.1 5.6-1 8.2 4.6 11.2 20.7.7 28.4 1.7 5.6.8 9.3 5.6 12.8 9.5 3.7 4.3 9.4 6.7 12.6 11.4 3.5 5 2.7 11.7 2.8 17.9.1 5.2.9 10.3 2.5 15.2.8 2.4 1.9 5 4.2 5.9 1.6.7 3.5.5 5 1.4 2.5 1.5 2.4 5 2.9 7.8 1.5 8.3 10.2 13.6 18.6 14.1s16.5-2.9 24.1-6.3c5.5-2.5 11.7-5.9 13.3-11.4-2.7 3.5-7.4 6-11.7 7.9z"/></g></g></svg>